<svg xmlns="http://www.w3.org/2000/svg" width="208.461" height="62.488" viewBox="0 0 208.461 62.488"><g transform="translate(-0.008)"><path d="M377.561,389.679a2.726,2.726,0,0,0,5.45.145c.038-1.221.125-2.468.24-3.73l-5.451-.328C377.681,387.094,377.594,388.4,377.561,389.679Z" transform="translate(-373.271 -343.879)" fill="#fff"/><path d="M404.369,382.135l-8.35-27.534c-.313-1.062-.779-2.815-1.876-2.961-.972-.129-2,1.484-2.535,2.452a120.288,120.288,0,0,0-8.173,18.068c-.663.006-1.351.014-2.08.023-1.36.017-2.826.036-4.412.054a2.725,2.725,0,0,0-2.7,2.755,3.052,3.052,0,0,0,2.755,2.7q2.383-.026,4.423-.053h.241a91.5,91.5,0,0,0-2.145,8.957l5.5.185a89.716,89.716,0,0,1,2.287-9.2c6.67-.028,9.933.171,10.841,3.045l1,3.054a2.732,2.732,0,0,0,3.385,1.846,2.8,2.8,0,0,0,1.839-3.391Zm-15.256-9.972c1.122-3.072,2.592-6.59,4.061-9.757l2.821,10.583c-1.432-.54-3.484-.762-6.882-.826Z" transform="translate(-374.024 -351.633)" fill="#fff"/><path d="M407.484,402.432l-14.1.4.039-6.145,5.906-.188c1.887-.071,3.139-1.3,3.124-2.668-.017-1.6-1.577-2.282-3.361-2.263q-.191,0-.386.015l-5.252.411.031-4.945,11.818.712h.025a3.245,3.245,0,0,0,3.393-2.534c.075-1.679-1.852-2.928-4.126-2.921l-11.076-.374v-.011a2.514,2.514,0,0,0-2.279-2.787,2.576,2.576,0,0,0-2.392,2.64l-4-.135-5.488-.187-2.433-.082h-.155c-1.448.016-2.717,1.15-2.7,2.208a2.453,2.453,0,0,0,2.591,2.463l2.043.123,5.449.328,4.493.27-.661,16.227-2.73.077a2.2,2.2,0,0,0-2.312,2.362,2.72,2.72,0,0,0,2.751,2.307l23.044.124a2.558,2.558,0,0,0,2.826-2.75C411.533,402.818,409.379,402.411,407.484,402.432Z" transform="translate(-374.065 -345.386)" fill="#fff"/><text transform="translate(57.468 28.735)" fill="#fff" font-size="22" font-family="Plus Jakarta Sans" font-weight="500"><tspan x="0" y="0">Empleo</tspan><tspan x="0" y="23">y Voluntariado</tspan></text></g></svg>