<svg xmlns="http://www.w3.org/2000/svg" xmlns:xlink="http://www.w3.org/1999/xlink" width="36" height="36" viewBox="0 0 36 36"><defs><clipPath id="b"><rect width="36" height="36"/></clipPath></defs><g id="a" clip-path="url(#b)"><g transform="translate(1 2)"><path d="M8,24.4h4.2a.6.6,0,0,1,.6.6v3.084A1.721,1.721,0,0,1,11.08,29.8H9.121A1.72,1.72,0,0,1,7.4,28.083V25A.6.6,0,0,1,8,24.4Zm3.6,1.2h-3v2.484a.519.519,0,0,0,.52.516H11.08a.519.519,0,0,0,.521-.516Z" transform="translate(6.9 -2.2)" fill="#1a9eda"/><path d="M7.3,18.382a.6.6,0,0,1-.379-.135,22.555,22.555,0,0,1-5.534-6.54,7.6,7.6,0,1,1,13.226,0A22.5,22.5,0,0,1,9.08,18.245a.6.6,0,1,1-.758-.93,21.225,21.225,0,0,0,5.225-6.159l.016-.03a6.4,6.4,0,1,0-11.124,0l.016.031a21.288,21.288,0,0,0,5.227,6.16.6.6,0,0,1-.38,1.065Z" transform="translate(9 5)" fill="#1a9eda"/><path d="M9.091,18.4a.6.6,0,0,1-.545-.349A26.925,26.925,0,0,1,5.862,8.165,10.674,10.674,0,0,1,7.11,2.057,3.1,3.1,0,0,1,9.633.4a.6.6,0,1,1,0,1.2A2.011,2.011,0,0,0,8.121,2.7C6.69,4.941,6.228,10.17,9.635,17.547a.6.6,0,0,1-.544.852Z" transform="translate(7.367 5)" fill="#1a9eda"/><path d="M11.544,18.4A.6.6,0,0,1,11,17.547C14.406,10.171,13.943,4.941,12.513,2.7A2.012,2.012,0,0,0,11,1.6.6.6,0,1,1,11,.4a3.105,3.105,0,0,1,2.523,1.658,10.673,10.673,0,0,1,1.249,6.108,26.924,26.924,0,0,1-2.684,9.885A.6.6,0,0,1,11.544,18.4Z" transform="translate(6 5)" fill="#1a9eda"/></g></g></svg>