<svg xmlns="http://www.w3.org/2000/svg" xmlns:xlink="http://www.w3.org/1999/xlink" width="36" height="36" viewBox="0 0 36 36"><defs><clipPath id="b"><rect width="36" height="36"/></clipPath></defs><g id="a" clip-path="url(#b)"><g transform="translate(-6776.5 -7978.816)"><g transform="translate(6786.5 7989.816)"><path d="M11.068,15.392a.6.6,0,0,1-.248-.054L4.751,12.58a.6.6,0,0,1-.352-.546V1a.6.6,0,0,1,.83-.554l5.839,2.428L16.906.446a.6.6,0,0,1,.83.554V12.034a.6.6,0,0,1-.352.546l-6.069,2.758A.6.6,0,0,1,11.068,15.392ZM5.6,11.648l5.469,2.486,5.469-2.486V1.9L11.3,4.077a.6.6,0,0,1-.461,0L5.6,1.9Z" transform="translate(-2.792 -1)" fill="#1a9eda"/><path d="M0,11.869a.6.6,0,0,1-.6-.6V0A.6.6,0,0,1,0-.6.6.6,0,0,1,.6,0V11.269A.6.6,0,0,1,0,11.869Z" transform="translate(8.275 2.524)" fill="#1a9eda"/><path d="M9.276,18.5a.6.6,0,0,1-.248-.054L.752,14.682A.6.6,0,0,1,.4,14.136V3A.6.6,0,0,1,1.6,3v10.75l7.676,3.488,7.675-3.488V3a.6.6,0,0,1,1.2,0V14.136a.6.6,0,0,1-.352.546L9.524,18.443A.6.6,0,0,1,9.276,18.5Z" transform="translate(-1 -1.896)" fill="#1a9eda"/></g></g></g></svg>