<svg xmlns="http://www.w3.org/2000/svg" xmlns:xlink="http://www.w3.org/1999/xlink" width="36" height="36" viewBox="0 0 36 36"><defs><clipPath id="b"><rect width="36" height="36"/></clipPath></defs><g id="a" clip-path="url(#b)"><g transform="translate(0.507 0.556)"><g transform="translate(8.493 9.444)"><path d="M11.65,4.581h-1.3V3.371A3.024,3.024,0,0,1,13.371.35h1.185a3.024,3.024,0,0,1,3.021,3.021v1.16h-1.3V3.371A1.723,1.723,0,0,0,14.556,1.65H13.371A1.723,1.723,0,0,0,11.65,3.371Z" transform="translate(-5.074 -1)" fill="#1a9eda"/><path d="M19.43,15.353H11.075v-1.3H18.13V8.185a.536.536,0,0,0-.535-.535H2.185a.536.536,0,0,0-.535.535v5.868H8.7v1.3H.35V8.185A1.837,1.837,0,0,1,2.185,6.35H17.594A1.837,1.837,0,0,1,19.43,8.185Z" transform="translate(-1 -3.444)" fill="#1a9eda"/><path d="M19.243,25.388H1.349V20h1.3v4.091H17.943V20h1.3Z" transform="translate(-1.408 -8.738)" fill="#1a9eda"/><path d="M-.65-.65h3.7v3.7H-.65Zm2.4,1.3H.65v1.1h1.1Z" transform="translate(7.661 10.088)" fill="#1a9eda"/></g></g></g></svg>