<svg xmlns="http://www.w3.org/2000/svg" xmlns:xlink="http://www.w3.org/1999/xlink" width="36" height="36" viewBox="0 0 36 36"><defs><clipPath id="b"><rect width="36" height="36"/></clipPath></defs><g id="a" clip-path="url(#b)"><g transform="translate(-2.65 -2.65)"><path d="M10.854,6.42H20.5a1.8,1.8,0,0,1,1.8,1.8v4.824a1.8,1.8,0,0,1-1.8,1.8H20v3.093l-4.045-3.091h-5.1a1.8,1.8,0,0,1-1.8-1.8V8.218A1.8,1.8,0,0,1,10.854,6.42ZM20.5,13.54a.5.5,0,0,0,.5-.5V8.218a.5.5,0,0,0-.5-.5H10.86l0-.65,0,.65a.5.5,0,0,0-.5.5v4.824a.5.5,0,0,0,.5.5H16.4L18.7,15.3V13.54Z" transform="translate(10.046 14.032)" fill="#1a9eda"/><path d="M3.216,15.144V11.262H2.258A2.261,2.261,0,0,1,0,9V2.26A2.261,2.261,0,0,1,2.258,0l13.49,0a2.261,2.261,0,0,1,2.258,2.258V7.1h-1.3V2.258a.959.959,0,0,0-.958-.958l-13.49,0A.959.959,0,0,0,1.3,2.26V9a.959.959,0,0,0,.958.958H4.516v2.62L8.1,9.962h1.66v1.3H8.523Z" transform="translate(10 14)" fill="#1a9eda"/></g></g></svg>