<svg xmlns="http://www.w3.org/2000/svg" xmlns:xlink="http://www.w3.org/1999/xlink" width="36" height="36" viewBox="0 0 36 36"><defs><clipPath id="b"><rect width="36" height="36"/></clipPath></defs><g id="a" clip-path="url(#b)"><g transform="translate(1547 12676)"><path d="M16.334,19.934H3.4V6H4.6V18.734H15.134V6h1.2Z" transform="translate(-1538.4 -12669.334)" fill="#1a9eda"/><path d="M14.934.6H0A.6.6,0,0,1-.6,0,.6.6,0,0,1,0-.6H14.934a.6.6,0,0,1,.6.6A.6.6,0,0,1,14.934.6Z" transform="translate(-1536 -12663.334)" fill="#1a9eda"/><path d="M16,3.667H14.8V1.6H9.6V3.667H8.4V.4H16Z" transform="translate(-1540.733 -12667)" fill="#1a9eda"/><path d="M0,8.6A.6.6,0,0,1-.6,8V0A.6.6,0,0,1,0-.6.6.6,0,0,1,.6,0V8A.6.6,0,0,1,0,8.6Z" transform="translate(-1528.533 -12660.668)" fill="#1a9eda"/><path d="M0,8.6A.6.6,0,0,1-.6,8V0A.6.6,0,0,1,0-.6.6.6,0,0,1,.6,0V8A.6.6,0,0,1,0,8.6Z" transform="translate(-1531.2 -12660.668)" fill="#1a9eda"/><path d="M0,8.6A.6.6,0,0,1-.6,8V0A.6.6,0,0,1,0-.6.6.6,0,0,1,.6,0V8A.6.6,0,0,1,0,8.6Z" transform="translate(-1525.866 -12660.668)" fill="#1a9eda"/></g></g></svg>