<svg xmlns="http://www.w3.org/2000/svg" xmlns:xlink="http://www.w3.org/1999/xlink" width="36" height="36" viewBox="0 0 36 36"><defs><clipPath id="b"><rect width="36" height="36"/></clipPath></defs><g id="a" clip-path="url(#b)"><g transform="translate(1487.651 12947.615)"><path d="M.35.35H10.962l5.92,5.92V22.421H.35Zm10.074,1.3H1.65V21.121H15.582V6.808Z" transform="translate(-1478 -12941)" fill="#1a9eda"/><path d="M20.539,7.189H14.35V1h1.3V5.889h4.889Z" transform="translate(-1482.307 -12941)" fill="#1a9eda"/><path d="M0,8.266a.65.65,0,0,1-.65-.65V0A.65.65,0,0,1,0-.65.65.65,0,0,1,.65,0V7.616A.65.65,0,0,1,0,8.266Z" transform="translate(-1469.384 -12931.688)" fill="#1a9eda"/><path d="M10.829,23.631,7.7,19.942A.65.65,0,0,1,8.7,19.1l2.134,2.519,2.132-2.514a.65.65,0,0,1,.992.841Z" transform="translate(-1480.215 -12946.697)" fill="#1a9eda"/></g></g></svg>