<svg xmlns="http://www.w3.org/2000/svg" xmlns:xlink="http://www.w3.org/1999/xlink" width="36" height="36" viewBox="0 0 36 36"><defs><clipPath id="b"><rect width="36" height="36"/></clipPath></defs><g id="a" clip-path="url(#b)"><g transform="translate(-11254 6738)"><path d="M10.712,16.454H.4V.4H8.1l4.922,4.922v5.669h-1.2V5.819L7.607,1.6H1.6V15.254h9.112Z" transform="translate(11264 -6729)" fill="#1a9eda"/><path d="M17.57,6.17H12.4V1h1.2V4.97h3.97Z" transform="translate(11258.854 -6729)" fill="#1a9eda"/><path d="M2.857-.6A3.457,3.457,0,1,1-.6,2.857,3.46,3.46,0,0,1,2.857-.6Zm0,5.713A2.257,2.257,0,1,0,.6,2.857,2.259,2.259,0,0,0,2.857,5.113Z" transform="translate(11273.57 -6718.288)" fill="#1a9eda"/><path d="M2.511,3.111a.6.6,0,0,1-.424-.176L-.424.424a.6.6,0,0,1,0-.849.6.6,0,0,1,.849,0L2.936,2.087a.6.6,0,0,1-.424,1.024Z" transform="translate(11278.489 -6713.376)" fill="#1a9eda"/></g></g></svg>