<svg xmlns="http://www.w3.org/2000/svg" xmlns:xlink="http://www.w3.org/1999/xlink" width="36" height="36" viewBox="0 0 36 36"><defs><clipPath id="b"><rect width="36" height="36"/></clipPath></defs><g id="a" clip-path="url(#b)"><g transform="translate(0.844 0.844)"><g transform="translate(9.156 9.156)"><path d="M1.7-.6A2.3,2.3,0,1,1-.6,1.7,2.3,2.3,0,0,1,1.7-.6Zm0,3.4A1.1,1.1,0,1,0,.6,1.7,1.1,1.1,0,0,0,1.7,2.8Z" transform="translate(0 13.6)" fill="#1a9eda"/><path d="M1.7-.6A2.3,2.3,0,1,1-.6,1.7,2.3,2.3,0,0,1,1.7-.6Zm0,3.4A1.1,1.1,0,1,0,.6,1.7,1.1,1.1,0,0,0,1.7,2.8Z" transform="translate(13.6)" fill="#1a9eda"/><path d="M1.7-.6A2.3,2.3,0,1,1-.6,1.7,2.3,2.3,0,0,1,1.7-.6Zm0,3.4A1.1,1.1,0,1,0,.6,1.7,1.1,1.1,0,0,0,1.7,2.8Z" transform="translate(6.8 6.801)" fill="#1a9eda"/><path d="M0,13.067a.6.6,0,0,1-.6-.6V0A.6.6,0,0,1,0-.6.6.6,0,0,1,.6,0V12.467A.6.6,0,0,1,0,13.067Z" transform="translate(1.7 1.133)" fill="#1a9eda"/><path d="M0,6.266a.6.6,0,0,1-.6-.6V0A.6.6,0,0,1,0-.6.6.6,0,0,1,.6,0V5.666A.6.6,0,0,1,0,6.266Z" transform="translate(8.5 10.2)" fill="#1a9eda"/><path d="M0,6.267a.6.6,0,0,1-.6-.6V0A.6.6,0,0,1,0-.6.6.6,0,0,1,.6,0V5.667A.6.6,0,0,1,0,6.267Z" transform="translate(8.5 1.133)" fill="#1a9eda"/><path d="M0,13.067a.6.6,0,0,1-.6-.6V0A.6.6,0,0,1,0-.6.6.6,0,0,1,.6,0V12.467A.6.6,0,0,1,0,13.067Z" transform="translate(15.3 3.4)" fill="#1a9eda"/></g></g></g></svg>