<svg xmlns="http://www.w3.org/2000/svg" xmlns:xlink="http://www.w3.org/1999/xlink" width="36" height="36" viewBox="0 0 36 36"><defs><clipPath id="b"><rect width="36" height="36"/></clipPath></defs><g id="a" clip-path="url(#b)"><g transform="translate(1 1)"><g transform="translate(9 11)"><path d="M17.15,15.2H1.85A1.452,1.452,0,0,1,.4,13.75V.4H6.7V1.533h9.634V3.8H18.6v9.95A1.452,1.452,0,0,1,17.15,15.2ZM3.845,14H17.15a.25.25,0,0,0,.25-.25V5H3.867v8.75A1.453,1.453,0,0,1,3.845,14ZM1.6,1.6V13.75a.25.25,0,0,0,.25.25h.567a.25.25,0,0,0,.25-.25V3.8H15.134V2.733H5.5V1.6Z" transform="translate(-1 -1)" fill="#1a9eda"/></g></g></g></svg>