<svg xmlns="http://www.w3.org/2000/svg" xmlns:xlink="http://www.w3.org/1999/xlink" width="36" height="36" viewBox="0 0 36 36"><defs><clipPath id="b"><rect width="36" height="36"/></clipPath></defs><g id="a" clip-path="url(#b)"><g transform="translate(1 1.661)"><g transform="translate(8 7.339)"><path d="M22.016,8.7H1.157L11.586.509ZM4.628,7.5H18.545L11.586,2.034Z" transform="translate(-2.27 -1.271)" fill="#1a9eda"/><path d="M4.969.6H0A.6.6,0,0,1-.6,0,.6.6,0,0,1,0-.6H4.969a.6.6,0,0,1,.6.6A.6.6,0,0,1,4.969.6Z" transform="translate(6.831 9.312)" fill="#1a9eda"/><path d="M.6,6.223H-.6V0H.6Z" transform="translate(8.074 9.312)" fill="#1a9eda"/><path d="M.6,6.223H-.6V0H.6Z" transform="translate(10.558 9.312)" fill="#1a9eda"/><path d="M4.348.6H0A.6.6,0,0,1-.6,0,.6.6,0,0,1,0-.6H4.348a.6.6,0,0,1,.6.6A.6.6,0,0,1,4.348.6Z" transform="translate(13.662 9.312)" fill="#1a9eda"/><path d="M.6,6.223H-.6V0H.6Z" transform="translate(14.283 9.312)" fill="#1a9eda"/><path d="M.6,6.223H-.6V0H.6Z" transform="translate(16.768 9.312)" fill="#1a9eda"/><path d="M4.347.6H0A.6.6,0,0,1-.6,0,.6.6,0,0,1,0-.6H4.347a.6.6,0,0,1,.6.6A.6.6,0,0,1,4.347.6Z" transform="translate(0.621 9.312)" fill="#1a9eda"/><path d="M.6,6.223H-.6V0H.6Z" transform="translate(1.863 9.312)" fill="#1a9eda"/><path d="M.6,6.223H-.6V0H.6Z" transform="translate(4.346 9.312)" fill="#1a9eda"/><path d="M17.388.6H0A.6.6,0,0,1-.6,0,.6.6,0,0,1,0-.6H17.388a.6.6,0,0,1,.6.6A.6.6,0,0,1,17.388.6Z" transform="translate(0.622 15.535)" fill="#1a9eda"/><path d="M18.63.6H0A.6.6,0,0,1-.6,0,.6.6,0,0,1,0-.6H18.63a.6.6,0,0,1,.6.6A.6.6,0,0,1,18.63.6Z" transform="translate(0 18)" fill="#1a9eda"/></g></g></g></svg>