<svg xmlns="http://www.w3.org/2000/svg" xmlns:xlink="http://www.w3.org/1999/xlink" width="36" height="36" viewBox="0 0 36 36"><defs><clipPath id="b"><rect width="36" height="36"/></clipPath></defs><g id="a" clip-path="url(#b)"><g transform="translate(-6974.41 -7913.324)"><g transform="translate(6984.41 7923.324)"><path d="M7.272,4.4A1.873,1.873,0,1,1,5.4,6.272,1.874,1.874,0,0,1,7.272,4.4Zm0,2.545A.673.673,0,1,0,6.6,6.272.673.673,0,0,0,7.272,6.945Z" transform="translate(-3.455 -2.964)" fill="#1a9eda"/><path d="M15.614,16.134A20.189,20.189,0,0,0,14.6,12.5c-.809-2.143-1.556-2.9-1.95-2.9-.895,0-1.7,2.251-2.043,3.213-.1.292-.194.543-.275.732s-.273.635-.735.635a1.546,1.546,0,0,1-1.182-.807c-.336-.446-.565-.72-1.024-.72-.5,0-1.178.551-1.817,1.474a6.214,6.214,0,0,0-.976,2l-1.2,0a6.456,6.456,0,0,1,1.162-2.642c.633-.926,1.638-2.03,2.83-2.03a2.407,2.407,0,0,1,1.982,1.2l.011.015.093-.257c.536-1.5,1.433-4.009,3.173-4.009,1.142,0,2.155,1.224,3.1,3.742a18.92,18.92,0,0,1,1.067,3.983h-1.2Z" transform="translate(-2.473 -4.929)" fill="#1a9eda"/><path d="M15.268.6H0V-.6H15.268Z" transform="translate(0 11.196)" fill="#1a9eda"/><path d="M-.6-.6H15.868V15.868H-.6ZM14.668.6H.6V14.668H14.668Z" transform="translate(0 0)" fill="#1a9eda"/></g></g></g></svg>