<svg xmlns="http://www.w3.org/2000/svg" xmlns:xlink="http://www.w3.org/1999/xlink" width="36" height="36" viewBox="0 0 36 36"><defs><clipPath id="a"><rect width="20.862" height="15" fill="none" stroke="#707070" stroke-width="1.2"/></clipPath><clipPath id="c"><rect width="36" height="36"/></clipPath></defs><g id="b" clip-path="url(#c)"><g transform="translate(7 11)"><g transform="translate(0 0)" clip-path="url(#a)"><path d="M29.211,14.7h-1.2V1.6H26.6V14.7H25.4V.4h3.809Z" transform="translate(-9.052 -0.348)" fill="#1a9eda"/><path d="M21.207,16.438h-1.2V6.6H18.6v9.834H17.4V5.4h3.807Z" transform="translate(-6.266 -2.09)" fill="#1a9eda"/><path d="M13.207,18.181h-1.2V11.61H10.6v6.571H9.4V10.41h3.807Z" transform="translate(-3.481 -3.833)" fill="#1a9eda"/><path d="M5.207,19.923h-1.2V16.615H2.6v3.309H1.4V15.415H5.207Z" transform="translate(-0.696 -5.575)" fill="#1a9eda"/><path d="M19.558.6H0A.6.6,0,0,1-.6,0,.6.6,0,0,1,0-.6H19.558a.6.6,0,0,1,.6.6A.6.6,0,0,1,19.558.6Z" transform="translate(0.652 14.348)" fill="#1a9eda"/></g></g></g></svg>