<svg xmlns="http://www.w3.org/2000/svg" xmlns:xlink="http://www.w3.org/1999/xlink" width="36" height="36" viewBox="0 0 36 36"><defs><clipPath id="b"><rect width="36" height="36"/></clipPath></defs><g id="a" clip-path="url(#b)"><g transform="translate(0 0.5)"><path d="M14.629,17.6H8.7a9.328,9.328,0,0,1-2.561-.623,9.057,9.057,0,0,0-2.181-.562H1a.6.6,0,0,1-.6-.6V8.7A.6.6,0,0,1,1,8.1H2.777C6.21,8.1,7.4,2.669,7.512,2.121a1.785,1.785,0,0,1,3.569.064,25.627,25.627,0,0,1-.449,4.734h5.775a1.785,1.785,0,0,1,.966,3.286,1.784,1.784,0,0,1-.593,2.37,1.784,1.784,0,0,1-.593,2.37A1.785,1.785,0,0,1,14.629,17.6ZM1.6,15.215H3.962a9.328,9.328,0,0,1,2.561.623A9.057,9.057,0,0,0,8.7,16.4h5.925a.585.585,0,1,0,0-1.17.6.6,0,1,1,0-1.2h.593a.585.585,0,0,0,0-1.17.6.6,0,1,1,0-1.2h.593a.585.585,0,1,0,0-1.17.6.6,0,0,1,0-1.2h.593a.585.585,0,0,0,0-1.17H9.889a.6.6,0,0,1-.582-.748,23.683,23.683,0,0,0,.574-5.186.585.585,0,1,0-1.17,0,.6.6,0,0,1-.01.107,14.19,14.19,0,0,1-1.165,3.42C6.362,8.062,4.716,9.3,2.777,9.3H1.6Z" transform="translate(8.5 8.5)" fill="#1a9eda"/></g></g></svg>