<svg xmlns="http://www.w3.org/2000/svg" xmlns:xlink="http://www.w3.org/1999/xlink" width="36" height="36" viewBox="0 0 36 36"><defs><clipPath id="b"><rect width="36" height="36"/></clipPath></defs><g id="a" clip-path="url(#b)"><g transform="translate(1715.65 12865.397)"><path d="M15.684,141.575a4.35,4.35,0,0,1-3.1-1.282,4.46,4.46,0,0,1-.557-.68.65.65,0,0,1,1.083-.719,3.154,3.154,0,0,0,.393.481,3.078,3.078,0,0,0,4.352,0l4.218-4.218a3.078,3.078,0,1,0-4.353-4.353l-2.636,2.636a.65.65,0,0,1-.919-.919l2.636-2.636A4.378,4.378,0,0,1,23,136.075l-4.218,4.218A4.347,4.347,0,0,1,15.684,141.575Z" transform="translate(-1712.629 -12986)" fill="#1a9eda"/><path d="M4.728,152.119a4.378,4.378,0,0,1-3.1-7.473l4.218-4.219a4.383,4.383,0,0,1,6.191,0,4.5,4.5,0,0,1,.557.682.65.65,0,0,1-1.083.719,3.19,3.19,0,0,0-.394-.483,3.081,3.081,0,0,0-4.351,0l-4.218,4.219A3.078,3.078,0,1,0,6.9,149.917l2.636-2.636a.65.65,0,0,1,.919.919l-2.636,2.636A4.348,4.348,0,0,1,4.728,152.119Z" transform="translate(-1708 -12990.217)" fill="#1a9eda"/></g></g></svg>