<svg xmlns="http://www.w3.org/2000/svg" xmlns:xlink="http://www.w3.org/1999/xlink" width="36" height="36" viewBox="0 0 36 36"><defs><clipPath id="b"><rect width="36" height="36"/></clipPath></defs><g id="a" clip-path="url(#b)"><g transform="translate(-6982.8 -8022.8)"><path d="M3.956-.6A4.556,4.556,0,1,1-.6,3.956,4.562,4.562,0,0,1,3.956-.6Zm0,7.913A3.356,3.356,0,1,0,.6,3.956,3.36,3.36,0,0,0,3.956,7.313Z" transform="translate(6991.8 8039.887)" fill="#1a9eda"/><path d="M7.5,20.23a.6.6,0,1,1,0-1.2A1.532,1.532,0,0,0,9.03,17.5a.6.6,0,1,1,1.2,0A2.733,2.733,0,0,1,7.5,20.23Z" transform="translate(6988.256 8026.343)" fill="#1a9eda"/><path d="M24.5,20.23a.6.6,0,1,1,0-1.2,1.532,1.532,0,0,0,1.53-1.53.6.6,0,1,1,1.2,0A2.733,2.733,0,0,1,24.5,20.23Z" transform="translate(6981.604 8026.343)" fill="#1a9eda"/><path d="M3.956-.6A4.556,4.556,0,1,1-.6,3.956,4.562,4.562,0,0,1,3.956-.6Zm0,7.913A3.356,3.356,0,1,0,.6,3.956,3.36,3.36,0,0,0,3.956,7.313Z" transform="translate(7002.147 8039.887)" fill="#1a9eda"/><path d="M9.708,11.047h-1.2V3.283A1.684,1.684,0,0,0,6.825,1.6a1.743,1.743,0,0,0-1.505.936c-.021.042-.04.085-.058.128l-.007.017L2.045,9.769.951,9.274,4.157,2.193c.027-.063.055-.126.086-.187l.014-.032h0A2.956,2.956,0,0,1,6.825.4,2.886,2.886,0,0,1,9.708,3.283Z" transform="translate(6990.605 8032.8)" fill="#1a9eda"/><path d="M18.6,11.047H17.4V3.283A2.886,2.886,0,0,1,20.283.4a2.955,2.955,0,0,1,2.559,1.562h0L22.861,2c.031.063.061.129.089.194l3.206,7.081-1.093.495L21.846,2.664c-.018-.043-.038-.086-.058-.128A1.767,1.767,0,0,0,20.283,1.6,1.684,1.684,0,0,0,18.6,3.283Z" transform="translate(6984.147 8032.8)" fill="#1a9eda"/><path d="M14.24,5.8l-.481-1.1a3.653,3.653,0,0,1,2.876-.017l-.467,1.106A2.453,2.453,0,0,0,14.24,5.8Z" transform="translate(6985.713 8031.235)" fill="#1a9eda"/><path d="M14.24,11.8l-.481-1.1a3.653,3.653,0,0,1,2.876-.017l-.467,1.106a2.453,2.453,0,0,0-1.928.011Z" transform="translate(6985.713 8028.887)" fill="#1a9eda"/></g></g></svg>