<svg xmlns="http://www.w3.org/2000/svg" xmlns:xlink="http://www.w3.org/1999/xlink" width="36" height="36" viewBox="0 0 36 36"><defs><clipPath id="b"><rect width="36" height="36"/></clipPath></defs><g id="a" clip-path="url(#b)"><path d="M5.092.35A5.222,5.222,0,0,1,9.183,2.383,5.218,5.218,0,0,1,13.274.35a4.746,4.746,0,0,1,4.741,4.741s0,.006,0,.01,0,.006,0,.01c0,.023,0,.044,0,.061a4.762,4.762,0,0,1-.056.637v.01c0,.027-.007.053-.012.08a4.761,4.761,0,0,1-.157.649C17.02,9.1,14.344,12.271,9.6,16.227a.65.65,0,0,1-.832,0,54.709,54.709,0,0,1-4.8-4.366A13.234,13.234,0,0,1,.566,6.506,4.729,4.729,0,0,1,.35,5.091c0-.02,0-.038,0-.052s0-.03,0-.048a.655.655,0,0,1,.009-.107A4.738,4.738,0,0,1,5.092.35ZM8.543,3.869A3.813,3.813,0,0,0,5.092,1.65,3.438,3.438,0,0,0,1.655,5.007q0,.02,0,.04c0,.025,0,.046,0,.061a3.431,3.431,0,0,0,.16,1.021l.008.029c.839,3.156,4.763,6.549,7.367,8.724,4.226-3.58,6.7-6.51,7.356-8.713l0-.014a3.45,3.45,0,0,0,.115-.478l0-.01c0-.007,0-.014,0-.022l0-.019V5.616a3.455,3.455,0,0,0,.043-.485c0-.018,0-.035,0-.049A3.445,3.445,0,0,0,13.274,1.65a3.794,3.794,0,0,0-3.484,2.3.65.65,0,0,1-1.247-.085Z" transform="translate(8.651 10.5)" fill="#1a9eda"/></g></svg>