<svg xmlns="http://www.w3.org/2000/svg" xmlns:xlink="http://www.w3.org/1999/xlink" width="36" height="36" viewBox="0 0 36 36"><defs><clipPath id="b"><rect width="36" height="36"/></clipPath></defs><g id="a" clip-path="url(#b)"><g transform="translate(-11503 6757)"><path d="M17.8.4a13.7,13.7,0,0,1,3.56.419c1.224.345,1.844.861,1.844,1.534s-.62,1.189-1.844,1.534a13.7,13.7,0,0,1-3.56.419,13.69,13.69,0,0,1-3.559-.419C13.022,3.542,12.4,3.026,12.4,2.353s.62-1.189,1.844-1.534A13.69,13.69,0,0,1,17.8.4Zm4.135,1.953a3.425,3.425,0,0,0-1.173-.45A13.305,13.305,0,0,0,17.8,1.6a13.3,13.3,0,0,0-2.961.3,3.423,3.423,0,0,0-1.173.45,3.423,3.423,0,0,0,1.173.45,13.3,13.3,0,0,0,2.961.3,13.305,13.305,0,0,0,2.962-.3A3.425,3.425,0,0,0,21.939,2.353Z" transform="translate(11505.4 -6748)" fill="#1a9eda"/><path d="M17.8,9.417A13.694,13.694,0,0,1,14.246,9C13.022,8.654,12.4,8.137,12.4,7.464h1.2a.171.171,0,0,0-.018-.082,2.5,2.5,0,0,0,1.26.531,13.3,13.3,0,0,0,2.961.3,13.311,13.311,0,0,0,2.962-.3,2.5,2.5,0,0,0,1.26-.531.171.171,0,0,0-.018.082h1.2c0,.673-.62,1.19-1.844,1.534A13.7,13.7,0,0,1,17.8,9.417Z" transform="translate(11505.4 -6751.016)" fill="#1a9eda"/><path d="M17.8,13.417A13.69,13.69,0,0,1,14.246,13c-1.223-.345-1.844-.861-1.844-1.534h1.2a.171.171,0,0,0-.018-.082,2.5,2.5,0,0,0,1.26.531,13.3,13.3,0,0,0,2.961.3,13.306,13.306,0,0,0,2.962-.3,2.5,2.5,0,0,0,1.26-.532.172.172,0,0,0-.018.082h1.2c0,.673-.62,1.189-1.844,1.534A13.7,13.7,0,0,1,17.8,13.417Z" transform="translate(11505.4 -6752.882)" fill="#1a9eda"/><path d="M17.8,17.416A13.683,13.683,0,0,1,14.246,17c-1.223-.345-1.844-.861-1.844-1.534h1.2a.171.171,0,0,0-.018-.082,2.5,2.5,0,0,0,1.26.532,13.291,13.291,0,0,0,2.961.3,13.3,13.3,0,0,0,2.962-.3,2.5,2.5,0,0,0,1.26-.532.171.171,0,0,0-.018.082h1.2c0,.673-.62,1.189-1.844,1.534A13.689,13.689,0,0,1,17.8,17.416Z" transform="translate(11505.4 -6754.748)" fill="#1a9eda"/><path d="M20.6,21.416c-.57,0-1.129-.027-1.662-.08l.12-1.194c.493.049,1.012.074,1.542.074a13.3,13.3,0,0,0,2.962-.3,2.5,2.5,0,0,0,1.26-.532.171.171,0,0,0-.018.082h1.2c0,.673-.62,1.189-1.844,1.534A13.689,13.689,0,0,1,20.6,21.416Z" transform="translate(11502.602 -6756.614)" fill="#1a9eda"/><path d="M.6,7.643H-.6V0H.6Z" transform="translate(11518.402 -6745.534)" fill="#1a9eda"/><path d="M20.6,16.12c-.57,0-1.129-.027-1.662-.08l.12-1.194c.493.049,1.012.074,1.542.074a13.3,13.3,0,0,0,2.961-.3,2.808,2.808,0,0,0,1.242-.509V3.536h1.2V14.167c0,.673-.62,1.189-1.844,1.534A13.693,13.693,0,0,1,20.6,16.12Z" transform="translate(11502.602 -6749.184)" fill="#1a9eda"/><path d="M5.8,17.33a13.694,13.694,0,0,1,3.558.419c1.224.345,1.844.861,1.844,1.534s-.62,1.189-1.844,1.534a13.687,13.687,0,0,1-3.558.419,13.682,13.682,0,0,1-3.558-.419C1.02,20.472.4,19.955.4,19.282s.62-1.189,1.843-1.534A13.689,13.689,0,0,1,5.8,17.33Zm4.133,1.952a3.425,3.425,0,0,0-1.173-.449,13.3,13.3,0,0,0-2.96-.3,13.3,13.3,0,0,0-2.96.3,3.422,3.422,0,0,0-1.172.449,3.421,3.421,0,0,0,1.172.45,13.29,13.29,0,0,0,2.96.3,13.3,13.3,0,0,0,2.96-.3A3.425,3.425,0,0,0,9.934,19.282Z" transform="translate(11511 -6755.899)" fill="#1a9eda"/><path d="M5.8,26.419A13.685,13.685,0,0,1,2.243,26C1.02,25.656.4,25.14.4,24.467H1.6a.172.172,0,0,0-.018-.082,2.5,2.5,0,0,0,1.26.531,13.294,13.294,0,0,0,2.96.3,13.3,13.3,0,0,0,2.96-.3,2.5,2.5,0,0,0,1.26-.531.172.172,0,0,0-.018.082h1.2c0,.673-.62,1.189-1.844,1.534A13.69,13.69,0,0,1,5.8,26.419Z" transform="translate(11511 -6758.949)" fill="#1a9eda"/><path d="M5.8,26.686a13.685,13.685,0,0,1-3.558-.419C1.02,25.923.4,25.407.4,24.734V20.578H1.6v4.1a2.808,2.808,0,0,0,1.241.508,13.294,13.294,0,0,0,2.96.3,13.3,13.3,0,0,0,2.96-.3A2.81,2.81,0,0,0,10,24.675v-4.21h1.2v4.269c0,.673-.62,1.189-1.844,1.534A13.691,13.691,0,0,1,5.8,26.686Z" transform="translate(11511 -6757.082)" fill="#1a9eda"/></g></g></svg>