<svg xmlns="http://www.w3.org/2000/svg" xmlns:xlink="http://www.w3.org/1999/xlink" width="36" height="36" viewBox="0 0 36 36"><defs><clipPath id="b"><rect width="36" height="36"/></clipPath></defs><g id="a" clip-path="url(#b)"><g transform="translate(11712.65 1810.649)"><path d="M19,16.317H3a2.653,2.653,0,0,1-2.65-2.65V.35h17.3V3.668h-1.3V1.65H1.65V13.667A1.351,1.351,0,0,0,3,15.017H19Z" transform="translate(-11706 -1801)" fill="#1a9eda"/><path d="M24.357,4.352h5.294V15a2.654,2.654,0,0,1-2.644,2.65H27A2.654,2.654,0,0,1,24.357,15Zm3.994,1.3H25.657V15a1.347,1.347,0,1,0,2.694,0Z" transform="translate(-11714.001 -1802.334)" fill="#1a9eda"/><path d="M10.665.65H0A.65.65,0,0,1-.65,0,.65.65,0,0,1,0-.65H10.665a.65.65,0,0,1,.65.65A.65.65,0,0,1,10.665.65Z" transform="translate(-11702.334 -1797.333)" fill="#1a9eda"/><path d="M-.65-.65H5.317V5.983H-.65ZM4.017.65H.65V4.683H4.017Z" transform="translate(-11702.334 -1794.667)" fill="#1a9eda"/><path d="M3.332.65H0A.65.65,0,0,1-.65,0,.65.65,0,0,1,0-.65H3.332a.65.65,0,0,1,.65.65A.65.65,0,0,1,3.332.65Z" transform="translate(-11695 -1794.667)" fill="#1a9eda"/><path d="M3.332.65H0A.65.65,0,0,1-.65,0,.65.65,0,0,1,0-.65H3.332a.65.65,0,0,1,.65.65A.65.65,0,0,1,3.332.65Z" transform="translate(-11695 -1791.993)" fill="#1a9eda"/><path d="M3.332.65H0A.65.65,0,0,1-.65,0,.65.65,0,0,1,0-.65H3.332a.65.65,0,0,1,.65.65A.65.65,0,0,1,3.332.65Z" transform="translate(-11695 -1789.334)" fill="#1a9eda"/></g></g></svg>