<svg xmlns="http://www.w3.org/2000/svg" xmlns:xlink="http://www.w3.org/1999/xlink" width="36" height="36" viewBox="0 0 36 36"><defs><clipPath id="b"><rect width="36" height="36"/></clipPath></defs><g id="a" clip-path="url(#b)"><g transform="translate(11 10)"><path d="M7.42-.1A1.906,1.906,0,0,1,9.3,1.473a6.206,6.206,0,0,1,2.928,1.982,5.992,5.992,0,0,1,1.349,3.776v4.706L14.844,13.9a.6.6,0,0,1-.5.924H.5A.6.6,0,0,1,0,13.9l1.262-1.965V7.231a5.991,5.991,0,0,1,1.35-3.776A6.207,6.207,0,0,1,5.535,1.473,1.906,1.906,0,0,1,7.42-.1Zm5.821,13.727-.764-1.189a.6.6,0,0,1-.1-.324V7.231A4.724,4.724,0,0,0,11.3,4.214a5,5,0,0,0-2.72-1.695.6.6,0,0,1-.459-.653.735.735,0,0,0,.006-.083.711.711,0,0,0-1.421,0,.717.717,0,0,0,.006.083.6.6,0,0,1-.459.653,5,5,0,0,0-2.72,1.695A4.724,4.724,0,0,0,2.457,7.231v4.882a.6.6,0,0,1-.1.324L1.6,13.627Z" transform="translate(-0.5 -0.5)" fill="#1a9eda"/><path d="M13.08,34.565a2.877,2.877,0,0,1-2.873-2.873.6.6,0,0,1,.6-.6h4.547a.6.6,0,0,1,.6.6A2.877,2.877,0,0,1,13.08,34.565Zm-1.562-2.273a1.673,1.673,0,0,0,3.124,0Z" transform="translate(-6.161 -17.965)" fill="#1a9eda"/></g></g></svg>