<svg xmlns="http://www.w3.org/2000/svg" xmlns:xlink="http://www.w3.org/1999/xlink" width="36" height="36" viewBox="0 0 36 36"><defs><clipPath id="b"><rect width="36" height="36"/></clipPath></defs><g id="a" clip-path="url(#b)"><g transform="translate(1.446 2.486)"><g transform="translate(12.554 8.513)"><path d="M8.039,5.439a.748.748,0,0,1-.57-.262L4.017,1.152.57,5.177a.75.75,0,0,1-1.058.082A.75.75,0,0,1-.57,4.2L4.017-1.152,8.608,4.2a.75.75,0,0,1-.569,1.238Z" transform="translate(0)" fill="#1a9eda"/><path d="M8.039,5.439a.748.748,0,0,1-.57-.262L4.017,1.152.57,5.177a.75.75,0,0,1-1.058.082A.75.75,0,0,1-.57,4.2L4.017-1.152,8.608,4.2a.75.75,0,0,1-.569,1.238Z" transform="translate(8.038 14) rotate(-180)" fill="#1a9eda"/></g></g></g></svg>