<svg xmlns="http://www.w3.org/2000/svg" xmlns:xlink="http://www.w3.org/1999/xlink" width="36" height="36" viewBox="0 0 36 36"><defs><clipPath id="b"><rect width="36" height="36"/></clipPath></defs><g id="a" clip-path="url(#b)"><g transform="translate(1496.524 12725.887)"><path d="M15.987.35h0a3.63,3.63,0,0,1,2.528,1.158,3.782,3.782,0,0,1,1.14,2.212A2.847,2.847,0,0,1,18.8,6.074L6.81,18.059.471,19.552l1.492-6.339L13.949,1.227A2.844,2.844,0,0,1,15.987.35ZM6.152,16.879,17.876,5.154a1.531,1.531,0,0,0,.486-1.293A2.489,2.489,0,0,0,17.6,2.427a2.353,2.353,0,0,0-1.608-.778,1.55,1.55,0,0,0-1.119.5L3.143,13.871l-.926,3.935Z" transform="translate(-1488.995 -12717.726)" fill="#1a9eda"/><path d="M3.469,4.387-.46.46.46-.46,4.388,3.468Z" transform="translate(-1474.869 -12715.759)" fill="#1a9eda"/><path d="M3.468,4.388-.46.46.46-.46,4.387,3.469Z" transform="translate(-1476.586 -12714.041)" fill="#1a9eda"/><path d="M3.468,4.388-.46.46.46-.46,4.387,3.469Z" transform="translate(-1486.446 -12704.181)" fill="#1a9eda"/></g></g></svg>