<svg xmlns="http://www.w3.org/2000/svg" xmlns:xlink="http://www.w3.org/1999/xlink" width="36" height="36" viewBox="0 0 36 36"><defs><clipPath id="b"><rect width="36" height="36"/></clipPath></defs><g id="a" clip-path="url(#b)"><g transform="translate(-11348 6797.001)"><path d="M12.767.65H0A.65.65,0,0,1-.65,0,.65.65,0,0,1,0-.65H12.767a.65.65,0,0,1,.65.65A.65.65,0,0,1,12.767.65Z" transform="translate(11362.384 -6784.743)" fill="#1a9eda"/><path d="M12.767.65H0A.65.65,0,0,1-.65,0,.65.65,0,0,1,0-.65H12.767a.65.65,0,0,1,.65.65A.65.65,0,0,1,12.767.65Z" transform="translate(11362.384 -6778.999)" fill="#1a9eda"/><path d="M12.767.65H0A.65.65,0,0,1-.65,0,.65.65,0,0,1,0-.65H12.767a.65.65,0,0,1,.65.65A.65.65,0,0,1,12.767.65Z" transform="translate(11362.384 -6773.251)" fill="#1a9eda"/><path d="M2.406,4.583.54,2.717A.65.65,0,0,1,1.46,1.8l.688.688L3.24.665a.65.65,0,0,1,1.115.669Z" transform="translate(11355 -6787)" fill="#1a9eda"/><path d="M2.406,13.563.54,11.7a.65.65,0,0,1,.919-.919l.688.688L3.24,9.646a.65.65,0,1,1,1.115.669Z" transform="translate(11355 -6790.249)" fill="#1a9eda"/><path d="M2.406,22.544.54,20.678a.65.65,0,0,1,.919-.919l.688.688L3.24,18.626a.65.65,0,0,1,1.115.669Z" transform="translate(11355 -6793.497)" fill="#1a9eda"/></g></g></svg>